# xmcd
#
# Track frame offsets: 
#        150
#        12589
#        30315
#        47554
#        61373
#        75554
#        91453
#        107419
#        125003
#        146737
#        165383
#        178032
#        192537
#        206962
#        219123
#        233311
#        246956
#        258036
#
# Disc length: 3574 seconds
#
# Revision: 0
# Processed by: cddbd v1.5.2PL0 Copyright (c) Steve Scherf et al.
# Submitted via: ExactAudioCopy v1.3
#
DISCID=ee0df412
DTITLE=Kenny Rogers - Kenny Rogers - The Album CD1
DYEAR=1900
DGENRE=
TTITLE0=It Had To Be You
TTITLE1=I Swear
TTITLE2=Stardust
TTITLE3=I Will Always Love You
TTITLE4=You Send Me
TTITLE5=Through The Years
TTITLE6=Unchained Melody
TTITLE7=Lady
TTITLE8=Always And Forever
TTITLE9=My Funny Valentine
TTITLE10=Somewhere My Love
TTITLE11=You Are So Beautiful
TTITLE12=You Light Up My Life
TTITLE13=Love Is A Many Splendored Thing
TTITLE14=Love Me tender
TTITLE15=Shine On Ruby Mountain
TTITLE16=She Even Woke Me Up To Say Goodbye
TTITLE17=Good Time Liberator
EXTD=
EXTT0=
EXTT1=
EXTT2=
EXTT3=
EXTT4=
EXTT5=
EXTT6=
EXTT7=
EXTT8=
EXTT9=
EXTT10=
EXTT11=
EXTT12=
EXTT13=
EXTT14=
EXTT15=
EXTT16=
EXTT17=
PLAYORDER=
